<svg id="Layer_1" data-name="Layer 1" xmlns="http://www.w3.org/2000/svg" viewBox="0 0 396.86 401.53"><defs><style>.cls-1{fill:#b0fd4c;}.cls-2{fill:#020203;}.cls-3{fill:#409cfd;}.cls-4{fill:#fefefe;}</style></defs><title>logo</title><path class="cls-1" d="M255,65.59c-.65,2.9-9.37,23.36-10.25,24.4s-4.41,2.23-4.87,2.8C238,95.12,208.91,159,205.67,163.32c-2.25,3-14.66,11.36-17.77,13.59a35.59,35.59,0,0,1-14.9,5.88,20.54,20.54,0,0,0-6.91,2.2,9.46,9.46,0,0,0-4.38,5.38,46.45,46.45,0,0,0-2.1,20.47,43.87,43.87,0,0,0,4.26,14.42,11,11,0,0,1,.88,2c.29,1.14.13,1.35-1,1.09-2.14-.48-4.26-1-6.39-1.52-1.32-.32-2.63-.67-4-.93-3.17-.61-5.7.7-7.94,2.78C143,231,130,257.58,130.65,258.08c5,3.89,64.91,45.11,64.83,45.5s-64.4,9.54-69.24,10.34c-8,1.32-12.52,6.44-14.65,13.92-1.62,5.68-4.75,20.33-5,20.06-.9-.88-19.18-30.75-24.46-46.29a196.43,196.43,0,0,1-7.68-29.4,166,166,0,0,1-2.4-18.6c-.38-6.37-.28-12.73,0-19.1q.21-5.22.67-10.41c.47-5.27,1.25-10.48,2.21-15.68A209.62,209.62,0,0,1,83.64,177c.58-1.67,1.55-6.06.85-6.33A92.86,92.86,0,0,1,64.16,160a62.27,62.27,0,0,1-17-19.26,106.15,106.15,0,0,1-8.83-19.56C37.9,120,34,107,37.75,89.49c.35-1.61,0-3.21.76-4.82,1.16-2.52,1.85-5.24,2.92-7.81a75.58,75.58,0,0,1,11.26-18.6A71,71,0,0,1,72.86,41.09,66,66,0,0,1,86,35.81c4.58-1.43,22.9-2.63,27.3-2.28A64.73,64.73,0,0,1,144.38,44a81.71,81.71,0,0,1,11,8.58c4.68,4.38,8.25,9.59,11.62,15,2,3.19,5.85,10.75,6.15,11.13a2.77,2.77,0,0,0,3.33,1c3.73-1.13,7.26-2.81,11-4a205.14,205.14,0,0,1,26.34-7.09,148.13,148.13,0,0,1,20.13-2.68C240.83,65.53,254.82,65.55,255,65.59Z" transform="translate(-36.14 -33.47)"/><path class="cls-2" d="M212.05,243c-1,.58-1.72,1.49-2.68,2.09a25.11,25.11,0,0,0-2.78,2,4.83,4.83,0,0,1-5.53.63,27.47,27.47,0,0,1-14.54-14.67c-1-2.37,4.68-10.25,4.54-10.62s-7.6.33-10.92.64a5.34,5.34,0,0,1-5.19-2.44,23.32,23.32,0,0,1-3.27-8.15,39.52,39.52,0,0,1-.52-14.62c.3-2.27,2-2.89,3.83-3.4,3.39-.95,6.89-1.28,10.34-1.89a25.6,25.6,0,0,0,4.72-1.23,2.56,2.56,0,0,0,1.78-1.86,6,6,0,0,1,1.85-2.6,53.7,53.7,0,0,1,11.39-9.09,12.15,12.15,0,0,1,2.68-1.12,4.8,4.8,0,0,1,4.53.73c.85.66,1.8,1.19,2.63,1.87.51.41.72.36.94-.21.9-2.29,1.82-4.56,2.71-6.85q12.81-32.87,25.57-65.75c.36-.91.76-1.14,1.62-.84.53.19,1.1.22,1.61.41,1.32.51,2.2-.08,3-1,1.87-2.24,16.75-38,18.44-41.87,1-2.32,2.16-2.87,4.86-2.25,3.62.84,28.92,11,37.88,15.21,2.75,1.31,3.22,2.3,2.25,5.18-2.84,8.4-12.77,33.83-14.47,38.29-.45,1.18-.41,1.19.81,1.3,6.21.59,12,2.47,16.85,6.47,6.24,5.12,9.11,11.85,9.06,19.85,0,2.63.11,5.32-1,7.81-.74,1.65-1.57,3.24-2.37,4.86a13.43,13.43,0,0,1-1,1.85c-1.6,2.17-1.28,4.42-.53,6.8,2.1,6.67,4.58,13.22,6.77,19.86a162.19,162.19,0,0,1,6.28,26.71c.64,4.27.88,8.58,1.25,12.87a114.93,114.93,0,0,1-.25,19.1A144.5,144.5,0,0,1,325,290.55c-3.38,8.22-7.35,16.15-11.49,24A40.38,40.38,0,0,0,311,320a2.3,2.3,0,0,0,.18,2.17c2.53,4,40.45,57.78,42.9,62.55,1.86,3.62,2.49,7.56,3.15,11.49a14,14,0,0,1,0,5.29,2.79,2.79,0,0,1-2.48,2.48c-5.48,1-168,20.54-171.49,20.71-1,0-34.6-39-46.47-53.94-5.09-6.41-10.11-12.86-15-19.44A9.75,9.75,0,0,1,120,343c.89-4.28,1.81-8.55,3-12.77a5.41,5.41,0,0,1,4.85-4.44c5.42-.87,55.82-7.72,61.4-8.73a121,121,0,0,0,18.39-4.43c3.18-1.1,6.32-2.32,8.86-4.67a5.85,5.85,0,0,0,1.67-2.72c.74-2.6,1.42-5.22,2.19-7.81.17-.59,0-.69-.49-.79-6-1.2-12-2.72-18.05-3.68a7.38,7.38,0,0,1-3-1.49c-4.41-3-8.88-6-13.3-9-13.1-8.93-26.39-17.58-39.21-26.91-2.31-1.69-2.34-1.71-1.19-4.27,1-2.11,2-4.2,3-6.27,1.46-2.88,4.11-3.9,7.08-4.29,5.44-.72,10.75.29,16,1.55,10.37,2.49,20.62,5.5,31,7.94,2.19.52,4.39,1,6.58,1.53.65.15,1,.07,1.24-.73.6-2.38,1.32-4.74,2-7.1A1.11,1.11,0,0,0,212.05,243Zm22.41-60.47a42.42,42.42,0,0,0,4.86,1.82c8.91,3.11,17.69,6.61,26.77,9.21a32.91,32.91,0,0,0,8.18,1.52,2.33,2.33,0,0,0,2.6-1.61c.28-.78.7-1.51,1.05-2.27.19-.41.36-.57.86-.28,1.32.76,2.7,1.42,4,2.16,4.48,2.46,8.47,5.51,11.21,9.92a45.43,45.43,0,0,1,5.07,12.39,60.38,60.38,0,0,1,1.68,15.09,109.18,109.18,0,0,1-1.6,22,106.73,106.73,0,0,1-9.34,27.19,74.58,74.58,0,0,0-3.22,7.12c-.34.93-1,1.95-.56,2.89a5.86,5.86,0,0,1,.15,3.46,58.91,58.91,0,0,1-2.08,7.85,10.4,10.4,0,0,0,1,9.06c1.51,2.45,2.72,5.08,4.12,7.6,1.25,2.27,2.66,4.46,3.83,6.9.49-.68.85-1.27,1.27-1.81,4.61-6,8-12.77,11.51-19.44a163.35,163.35,0,0,0,10.24-23.12,139,139,0,0,0,6-25.39,113.05,113.05,0,0,0,1.27-16.74,164.7,164.7,0,0,0-2.77-28.63,172.6,172.6,0,0,0-9.28-32.05,17,17,0,0,0-2.15-3.92,2.45,2.45,0,0,0-2.7-1.07,23.53,23.53,0,0,1-3.85.32c-5.5.12-11,.13-16.5,0a12.88,12.88,0,0,1-4.94-.66,39.84,39.84,0,0,1-9.9-6.13,22.29,22.29,0,0,1-4.47-5.83,21.84,21.84,0,0,1-2.21-5,34.37,34.37,0,0,1-.76-11,18.7,18.7,0,0,1,2.68-9c1.32-2.21,2.73-4.36,4.25-6.44.68-.92.61-1.24-.44-1.7a6,6,0,0,0-.59-.23l-12.22-4.13a1.28,1.28,0,0,0-.89-.75,44.7,44.7,0,0,1-4.29-1.56c-.84-.38-1.07-.24-1.39.59q-8.59,22.17-17.24,44.31c-1.86,4.78-3.69,9.56-5.55,14.33-.26.68-.15,1,.6,1.08a10.74,10.74,0,0,1,4,1.39A2.58,2.58,0,0,0,234.46,182.53ZM343.18,386.68c0-.24.12-.65-.06-.68-1-.21-1.28-1.19-1.78-1.84-6.17-8.1-11.85-16.56-18.18-24.56-5.29-6.68-10-13.78-15-20.69-1.51-2.08-2.9-4.25-4.59-6.2-.81-.93-1.35-.83-2,.22a14.66,14.66,0,0,1-1.46,2.14,1,1,0,0,0-.18,1.38c2.6,4.68,5.13,9.4,7.74,14.07,2.43,4.37,4.63,8.86,7.29,13.1.16.25.09.37-.15.46a5,5,0,0,1-1,.37c-3.28.57-6.56,1.17-9.86,1.68-4.12.64-8.25,1.2-12.37,1.81-5.78.85-11.55,1.74-17.32,2.59-5.61.83-11.23,1.55-16.82,2.46a12.28,12.28,0,0,1-8.52-1.43,46.12,46.12,0,0,1-8.65-6.7c-8.18-7.8-15.83-16.13-23.83-24.11a26.75,26.75,0,0,1-4.81-6.28,5.53,5.53,0,0,1-.49-4.61c.38-1.11.68-2.25,1-3.37a1.25,1.25,0,0,0-.88-.08c-1.9.2-3.8.42-5.7.64l-55.75,6.47c-5.28.62-10.56,1.26-15.85,1.84-.7.08-.67.41-.59.89-.36,1.41-.69,2.83-1.07,4.23a4.72,4.72,0,0,0,.12,2.76,23.9,23.9,0,0,0,2.43,5,158.21,158.21,0,0,0,12.9,17.94c10.39,12.86,20.87,25.65,31.27,38.5a7.92,7.92,0,0,0,4,2.63,43.74,43.74,0,0,0,10.49,1.48c9.7.5,146.51-13.55,151.07-14,.72-.08.76-.31.68-.89A22.32,22.32,0,0,0,343.18,386.68ZM277.56,223c0-1.77,0-3.55,0-5.33a8.24,8.24,0,0,0-4.53-7.94c-3.75-2-7.85-3.12-11.78-4.64-.54-.21-.51.19-.61.43-1.36,3.48-2.68,7-3.88,10.52a4.38,4.38,0,0,0,.66,4.29,34.61,34.61,0,0,1,3.8,5.84,1.73,1.73,0,0,1-.06,1.76c-1.66,2.75-3.29,5.52-4.93,8.28a38.61,38.61,0,0,1-4.35,6.6c-1.56,1.71-3.36,2.91-5.82,2.67a5,5,0,0,0-3.9,1.67,13.82,13.82,0,0,0-2.27,2.84c-2.27,3.71-4.06,7.66-6,11.55-.39.8-.28,1.17.56,1.59,6.28,3.16,12.54,6.37,18.8,9.58a6.05,6.05,0,0,1,1.08.62,23.43,23.43,0,0,0,5.79,2.95c.76.32,1.1.08,1.46-.58a175.27,175.27,0,0,0,9.54-20.53C275.11,244.82,277.67,234.16,277.56,223ZM304,82.38c.26-1.06-.56-.81-.89-.94-6.61-2.49-13.24-4.93-19.86-7.39-3.19-1.19-6.2-1.14-8.83,1.33a13.53,13.53,0,0,0-3.3,4.88c-4,9.86-7.46,19.91-11,29.94-.28.79.19.81.62,1l14,5.33a113.09,113.09,0,0,0,11.31,3.83c1.75.46,2,.34,3.06-1.09a31.33,31.33,0,0,0,3.27-6.26c3.53-8.4,6.58-17,9.84-25.49A44.09,44.09,0,0,0,304,82.38ZM256.36,361.15l4.28-.53q7.65-1,15.26-2.2c6.55-1,13.11-2,19.63-3.18,1-.18,1.15-.54.61-1.4-.11-.17-.22-.35-.32-.53q-6.4-11.69-12.82-23.39c-3.09-5.63-6.13-11.28-9.24-16.9a6,6,0,0,0-2.36-2.72c-2.72-1.36-7-1.25-8.61,2.9-.78,2-1.79,3.91-1.82,6.12a17.59,17.59,0,0,1-.21,1.76L259,335.56q-.88,7-1.78,14.07l-1.35,10.65C255.78,360.75,255.62,361.37,256.36,361.15Zm-2.05-57.62c-.14-.13-.16-.17-.19-.18-3.8-.81-7.6-1.59-11.4-2.44-1.81-.4-3.65-.68-5.45-1.2-2.69-.79-3.24-.48-4.67,2a27.47,27.47,0,0,0-1.68,3.45c-3,7.56-5.23,15.4-7.5,23.21a4,4,0,0,0,1,4.06c2.36,2.79,5.33,5,7.76,7.64A153,153,0,0,0,244,351.83a1.26,1.26,0,0,0,.95.44c.41-4.25,1.13-8.46,1.74-12.68,1.05-7.33,2.18-14.64,3.31-22C250.73,312.72,251.51,307.81,254.31,303.53Zm47.05-139.74a21.65,21.65,0,0,0,2.29-.16,15.45,15.45,0,0,0,9.74-5.92,18.47,18.47,0,0,0,3.88-6.72c.94-3.55.19-7-1-10.3-.82-2.32-2.56-4-4.31-5.69-5.61-5.29-11-5.93-18.35-2.93-3.36,1.37-5.51,4.25-6.91,7.51s-2.81,6.74-1.55,10.51c.23.69.38,1.4.6,2.1A16.3,16.3,0,0,0,301.36,163.79ZM244.9,235a3,3,0,0,0,3-1.44,50,50,0,0,0,2.42-4.79,3.28,3.28,0,0,0-.5-3.93c-4.83-5.82-10.21-11.14-15.26-16.76-4.79-5.32-10.54-9.6-16-14.24q-4.12-3.54-8.42-6.86a2,2,0,0,0-2.56-.15c-1.25.77-2.4,1.67-3.57,2.54a6.28,6.28,0,0,0-2.51,7c.69,3.19,1.56,6.34,2.35,9.5.4,1.62.5,1.63,1.73.43.78-.75,1.54-1.52,2.34-2.24a2.61,2.61,0,0,1,3.25-.39,50.65,50.65,0,0,1,6.24,4,31.82,31.82,0,0,1,11.78,16.76c.57,1.84.36,3.57-1.47,4.78-.85.57-.79.82.11,1.25a8.09,8.09,0,0,0,1.07.4c2.72.83,5.44,1.68,8.17,2.47A40.72,40.72,0,0,0,244.9,235Zm31.89,60.8c.28-1-.4-1.2-1.13-1.37-4.56-1.06-9.11-2.14-13.66-3.21-17.37-4.1-34.73-8.17-52.08-12.33-1.4-.33-2.88-.23-4.2-1.06q-23.17-14.44-46.38-28.81c-.53-.33-1-.76-1.55-1.06s-1.24-.41-1.56.59c-.67,2.07-.72,2.06,1.14,3.29l.68.48q21.3,14.68,42.64,29.28a29.58,29.58,0,0,0,10.4,4.09c12.22,2.81,24.54,5.26,36.84,7.72,9,1.81,18.06,3.42,27.1,5.12,1.12.21,1.32.05,1.48-1.09C276.6,296.92,276.7,296.37,276.79,295.83Zm-22.94-12.5a2.06,2.06,0,0,0-1.19-1c-2.83-1.38-5.58-2.93-8.41-4.32q-8-3.94-15.83-8.19a133.49,133.49,0,0,0-28.16-11.33c-5.82-1.6-11.65-3.18-17.61-4.2a22.93,22.93,0,0,0-4.15-.59,6.11,6.11,0,0,0,1.24,1.11c8.64,5.6,17.24,11.26,26,16.62a19.75,19.75,0,0,0,5.78,2.44c2.64.62,5.29,1.16,7.93,1.75q15.28,3.43,30.58,6.87A15.59,15.59,0,0,0,253.85,283.33Zm32.3-70.53c0,2.74,0,5.48,0,8.21A93.58,93.58,0,0,1,276.9,264q-3.79,8-7.91,15.91c-.38.7-.3,1.22.49,1.58,1,.46,1.92,1,2.89,1.44,2.45,1.18,1.84,1.33,3.19-1a90.67,90.67,0,0,0,11.12-27.52,125,125,0,0,0,2.53-16.66,87.49,87.49,0,0,0,.05-13.35A28.28,28.28,0,0,0,286.15,212.8Zm-67.4,9.42a4.45,4.45,0,0,0-.33-.94,24.28,24.28,0,0,0-4-5.44c-2.81-2.68-3.78-2.62-6.27.42-2,2.39-4.06,4.68-6.16,7a54.8,54.8,0,0,0-5.74,7.29,1.82,1.82,0,0,0,0,2.12,15,15,0,0,0,3.13,3.74c1.78,1.59,2.46,1.68,4.55.56a48.81,48.81,0,0,0,7.45-5.33,35.66,35.66,0,0,0,5.88-5.77A6.45,6.45,0,0,0,218.75,222.22Zm67.31-58.58c-2.43-1.84-3.6-4.5-4.88-7.07a21.87,21.87,0,0,1-2.3-9.41,20.57,20.57,0,0,1,2.88-10.09c1.09-2.07,1.73-4.41,3.53-6.07.34-.31.2-.7.16-1.08-.34.14-.65.28-1,.39a17.46,17.46,0,0,0-9.23,7.1c-1.5,2.33-3,4.7-3,7.64a27.39,27.39,0,0,0,.63,7.35,11.66,11.66,0,0,0,2.18,4.77,43.7,43.7,0,0,0,3.45,3.49A10.64,10.64,0,0,0,286.06,163.64ZM183.8,214c4.07-.58,8.17-.78,12.25-1.12,1.19-.09,1.31-.2,1-1.3-.71-2.25-1.44-4.48-2.22-6.7A5.4,5.4,0,0,0,190,201.2c-3.65-.46-7.17.63-10.75,1-.39,0-.43.22-.41.54a47.78,47.78,0,0,0,1.26,9.38,2.27,2.27,0,0,0,1.7,1.65A7.26,7.26,0,0,0,183.8,214Zm39.83,42.57c.72.21,1.23-.24,1.73-.77a30.77,30.77,0,0,0,3.8-5.59c1.43-2.45,2.82-4.93,4.21-7.41.21-.39.73-.91-.16-1.22-3.21-1.09-6.41-2.21-9.62-3.3-.27-.1-.7-.34-.82.07-.27.87-1,1.45-1.23,2.36-.91,3.58-1.48,7.23-2.52,10.78-.2.66-.41,1.32-.57,2-.06.26-.2.59.05.79.67.52,1.19,1.23,2.14,1.37S222.42,256.75,223.63,256.56Z" transform="translate(-36.14 -33.47)"/><path class="cls-1" d="M421.79,237.15c.13,5.86-.09,11.43-.44,17a164.61,164.61,0,0,1-18.55,67.12,194.86,194.86,0,0,1-18.36,29.34,96.08,96.08,0,0,1-8.22,9.86c-2.59,2.53-5.18,5.05-7.68,7.66-1.57,1.64-3.1,3.3-4.69,4.91-1.19,1.2-1.75,1.15-2.73-.23-7.47-10.54-15.21-20.88-22.42-31.6a74.88,74.88,0,0,1-8.61-16.53,30.77,30.77,0,0,1-1.9-8.94,16.32,16.32,0,0,1,1.7-7.87A176.44,176.44,0,0,0,340,282.5a159.52,159.52,0,0,0,4.71-20.71c.63-3.84,1.19-7.69,1.6-11.56.13-1.24.2-2.49.25-3.74.22-5.51.15-11,0-16.51a159.62,159.62,0,0,0-4.42-32.17c-2-8.38-4.67-16.57-7.33-24.77a27.78,27.78,0,0,1-1.23-4.95,10.75,10.75,0,0,1,.8-5.91,36.49,36.49,0,0,0,2.55-20,37,37,0,0,0-8.06-18.62,43.71,43.71,0,0,0-11.14-9.82c-2-1.24-2.63-2.7-1.69-5.15,1.94-5.06,3.81-10.15,6.11-15.07a12.86,12.86,0,0,1,2.48-3.6,7,7,0,0,1,8.51-1.44A92.13,92.13,0,0,1,344,95.17,169.39,169.39,0,0,1,371.65,118a186.52,186.52,0,0,1,31.51,43.87,180,180,0,0,1,13.24,35.28A193.12,193.12,0,0,1,420.92,219c.35,2.34.55,4.7.67,7.06C421.78,229.84,421.93,233.64,421.79,237.15Z" transform="translate(-36.14 -33.47)"/><path class="cls-3" d="M133.34,336.25c-.08-.48-.11-.81.59-.89,5.29-.58,75.4-8.75,77.3-8.95a1.25,1.25,0,0,1,.88.08c-.33,1.12-.63,2.26-1,3.37a5.53,5.53,0,0,0,.49,4.61c1.26,2.35,34.1,35.24,37.29,37.09,2.68,1.56,61.61-6.54,64.89-7.11a5,5,0,0,0,1-.37c.24-.09.31-.21.15-.46-2.66-4.24-12.43-22.49-15-27.17a1,1,0,0,1,.18-1.38,14.66,14.66,0,0,0,1.46-2.14c.68-1.05,1.22-1.15,2-.22,1.69,2,3.08,4.12,4.59,6.2,5,6.91,27.05,37.15,33.22,45.25.5.65.75,1.63,1.78,1.84.18,0,.09.44.06.68a1.83,1.83,0,0,0-1.28-.24c-2.24.3-4.48.56-6.72.82-3.84.45-137.42,15.84-141.6,16.51-3.11.5-5.46-.26-7.4-2.77-3.87-5-48-59.82-50.92-63.48C134.76,336.9,134.26,336.24,133.34,336.25Z" transform="translate(-36.14 -33.47)"/><path class="cls-3" d="M257.57,122.65l12.22,4.13a6,6,0,0,1,.59.23c1.05.46,1.12.78.44,1.7-1.52,2.08-2.93,4.23-4.25,6.44a18.7,18.7,0,0,0-2.68,9,34.37,34.37,0,0,0,.76,11,21.84,21.84,0,0,0,2.21,5,22.29,22.29,0,0,0,4.47,5.83,39.84,39.84,0,0,0,9.9,6.13,12.88,12.88,0,0,0,4.94.66c5.5.15,11,.14,16.5,0a23.53,23.53,0,0,0,3.85-.32,2.45,2.45,0,0,1,2.7,1.07,17,17,0,0,1,2.15,3.92,172.6,172.6,0,0,1,9.28,32.05,164.7,164.7,0,0,1,2.77,28.63,113.05,113.05,0,0,1-1.27,16.74,139,139,0,0,1-6,25.39,163.35,163.35,0,0,1-10.24,23.12c-3.52,6.67-6.9,13.42-11.51,19.44-.42.54-.78,1.13-1.27,1.81-1.17-2.44-2.58-4.63-3.83-6.9-1.4-2.52-2.61-5.15-4.12-7.6a10.4,10.4,0,0,1-1-9.06,58.91,58.91,0,0,0,2.08-7.85,5.86,5.86,0,0,0-.15-3.46c-.4-.94.22-2,.56-2.89a74.58,74.58,0,0,1,3.22-7.12,106.73,106.73,0,0,0,9.34-27.19,109.18,109.18,0,0,0,1.6-22,60.38,60.38,0,0,0-1.68-15.09A45.43,45.43,0,0,0,294,203c-2.74-4.41-6.73-7.46-11.21-9.92-1.34-.74-2.72-1.4-4-2.16-.5-.29-.67-.13-.86.28-.35.76-.77,1.49-1.05,2.27a2.33,2.33,0,0,1-2.6,1.61,32.91,32.91,0,0,1-8.18-1.52c-9.08-2.6-17.86-6.1-26.77-9.21a42.42,42.42,0,0,1-4.86-1.82c.28-.62.59-1.24.84-1.88q6.81-17.6,13.61-35.19C251.83,137.87,254.68,130.25,257.57,122.65Z" transform="translate(-36.14 -33.47)"/><path class="cls-4" d="M133.34,336.25c.92,0,1.42.65,1.92,1.27,3,3.66,47.05,58.51,50.92,63.48,1.94,2.51,4.29,3.27,7.4,2.77,4.18-.67,137.76-16.06,141.6-16.51,2.24-.26,4.48-.52,6.72-.82a1.83,1.83,0,0,1,1.28.24,22.32,22.32,0,0,1,2.06,7.25c.08.58,0,.81-.68.89-4.56.46-158.14,13.56-161.56,12.53a7.92,7.92,0,0,1-4-2.63c-10.4-12.85-40.37-50.1-44.17-56.44a23.9,23.9,0,0,1-2.43-5,4.72,4.72,0,0,1-.12-2.76C132.65,339.08,133,337.66,133.34,336.25Z" transform="translate(-36.14 -33.47)"/><path class="cls-4" d="M277.56,223c.11,11.16-2.45,21.82-6.4,32.17a175.27,175.27,0,0,1-9.54,20.53c-.36.66-.7.9-1.46.58a23.43,23.43,0,0,1-5.79-2.95,6.05,6.05,0,0,0-1.08-.62c-6.26-3.21-12.52-6.42-18.8-9.58-.84-.42-1-.79-.56-1.59,1.9-3.89,3.69-7.84,6-11.55a13.82,13.82,0,0,1,2.27-2.84,5,5,0,0,1,3.9-1.67c2.46.24,4.26-1,5.82-2.67a38.61,38.61,0,0,0,4.35-6.6c1.64-2.76,3.27-5.53,4.93-8.28a1.73,1.73,0,0,0,.06-1.76,34.61,34.61,0,0,0-3.8-5.84,4.38,4.38,0,0,1-.66-4.29c1.2-3.54,2.52-7,3.88-10.52.1-.24.07-.64.61-.43,3.93,1.52,8,2.62,11.78,4.64a8.24,8.24,0,0,1,4.53,7.94C277.54,219.45,277.56,221.23,277.56,223Z" transform="translate(-36.14 -33.47)"/><path class="cls-4" d="M304,82.38a44.09,44.09,0,0,1-1.78,5.12C299,96,295.91,104.59,292.38,113a31.33,31.33,0,0,1-3.27,6.26c-1,1.43-1.31,1.55-3.06,1.09a113.09,113.09,0,0,1-11.31-3.83l-14-5.33c-.43-.17-.9-.19-.62-1,3.52-10,7-20.08,11-29.94a13.53,13.53,0,0,1,3.3-4.88c2.63-2.47,5.64-2.52,8.83-1.33,6.62,2.46,13.25,4.9,19.86,7.39C303.44,81.57,304.26,81.32,304,82.38Z" transform="translate(-36.14 -33.47)"/><path class="cls-3" d="M256.36,361.15c-.74.22-.58-.4-.53-.87l1.35-10.65q.9-7,1.78-14.07l1.8-14.48a17.59,17.59,0,0,0,.21-1.76c0-2.21,1-4.14,1.82-6.12,1.64-4.15,5.89-4.26,8.61-2.9a6,6,0,0,1,2.36,2.72c3.11,5.62,6.15,11.27,9.24,16.9q6.39,11.7,12.82,23.39c.1.18.21.36.32.53.54.86.39,1.22-.61,1.4-6.52,1.2-13.08,2.14-19.63,3.18q-7.61,1.2-15.26,2.2Z" transform="translate(-36.14 -33.47)"/><path class="cls-4" d="M254.31,303.53c-2.8,4.28-3.58,9.19-4.34,14.1-1.13,7.32-2.26,14.63-3.31,22-.61,4.22-1.33,8.43-1.74,12.68a1.26,1.26,0,0,1-.95-.44A153,153,0,0,1,232.14,340c-2.43-2.69-5.4-4.85-7.76-7.64a4,4,0,0,1-1-4.06c2.27-7.81,4.46-15.65,7.5-23.21a27.47,27.47,0,0,1,1.68-3.45c1.43-2.45,2-2.76,4.67-2,1.8.52,3.64.8,5.45,1.2,3.8.85,7.6,1.63,11.4,2.44C254.15,303.36,254.17,303.4,254.31,303.53Z" transform="translate(-36.14 -33.47)"/><path class="cls-4" d="M301.36,163.79a16.3,16.3,0,0,1-15.6-11.6c-.22-.7-.37-1.41-.6-2.1-1.26-3.77.11-7.18,1.55-10.51s3.55-6.14,6.91-7.51c7.37-3,12.74-2.36,18.35,2.93,1.75,1.65,3.49,3.37,4.31,5.69,1.18,3.33,1.93,6.75,1,10.3a18.47,18.47,0,0,1-3.88,6.72,15.45,15.45,0,0,1-9.74,5.92A21.65,21.65,0,0,1,301.36,163.79Z" transform="translate(-36.14 -33.47)"/><path class="cls-3" d="M244.9,235a40.72,40.72,0,0,1-7.79-1.74c-2.73-.79-5.45-1.64-8.17-2.47a8.09,8.09,0,0,1-1.07-.4c-.9-.43-1-.68-.11-1.25,1.83-1.21,2-2.94,1.47-4.78a31.82,31.82,0,0,0-11.78-16.76,50.65,50.65,0,0,0-6.24-4,2.61,2.61,0,0,0-3.25.39c-.8.72-1.56,1.49-2.34,2.24-1.23,1.2-1.33,1.19-1.73-.43-.79-3.16-1.66-6.31-2.35-9.5a6.28,6.28,0,0,1,2.51-7c1.17-.87,2.32-1.77,3.57-2.54a2,2,0,0,1,2.56.15q4.31,3.31,8.42,6.86c5.42,4.64,11.17,8.92,16,14.24,5.05,5.62,10.43,10.94,15.26,16.76a3.28,3.28,0,0,1,.5,3.93,50,50,0,0,1-2.42,4.79A3,3,0,0,1,244.9,235Z" transform="translate(-36.14 -33.47)"/><path class="cls-4" d="M276.79,295.83c-.09.54-.19,1.09-.28,1.64-.16,1.14-.36,1.3-1.48,1.09-9-1.7-18.09-3.31-27.1-5.12-12.3-2.46-24.62-4.91-36.84-7.72a29.58,29.58,0,0,1-10.4-4.09q-21.34-14.6-42.64-29.28l-.68-.48c-1.86-1.23-1.81-1.22-1.14-3.29.32-1,.86-1,1.56-.59s1,.73,1.55,1.06q23.19,14.4,46.38,28.81c1.32.83,2.8.73,4.2,1.06,17.35,4.16,34.71,8.23,52.08,12.33,4.55,1.07,9.1,2.15,13.66,3.21C276.39,294.63,277.07,294.82,276.79,295.83Z" transform="translate(-36.14 -33.47)"/><path class="cls-3" d="M253.85,283.33a15.59,15.59,0,0,1-3.79-.85q-15.3-3.41-30.58-6.87c-2.64-.59-5.29-1.13-7.93-1.75a19.75,19.75,0,0,1-5.78-2.44c-8.79-5.36-17.39-11-26-16.62a6.11,6.11,0,0,1-1.24-1.11,22.93,22.93,0,0,1,4.15.59c6,1,11.79,2.6,17.61,4.2a133.49,133.49,0,0,1,28.16,11.33q7.83,4.26,15.83,8.19c2.83,1.39,5.58,2.94,8.41,4.32A2.06,2.06,0,0,1,253.85,283.33Z" transform="translate(-36.14 -33.47)"/><path class="cls-4" d="M257.57,122.65c-2.89,7.6-17.73,46.27-22.27,58-.25.64-.56,1.26-.84,1.88a2.58,2.58,0,0,1-1.66-.49,10.74,10.74,0,0,0-4-1.39c-.75-.08-.86-.4-.6-1.08,1.86-4.77,17.06-43.86,22.79-58.64.32-.83.55-1,1.39-.59a44.7,44.7,0,0,0,4.29,1.56A1.28,1.28,0,0,1,257.57,122.65Z" transform="translate(-36.14 -33.47)"/><path class="cls-4" d="M286.15,212.8a28.28,28.28,0,0,1,3.11,11.59,87.49,87.49,0,0,1-.05,13.35,125,125,0,0,1-2.53,16.66,90.67,90.67,0,0,1-11.12,27.52c-1.35,2.29-.74,2.14-3.19,1-1-.47-1.92-1-2.89-1.44-.79-.36-.87-.88-.49-1.58Q273.12,272,276.9,264A93.58,93.58,0,0,0,286.15,221C286.14,218.28,286.15,215.54,286.15,212.8Z" transform="translate(-36.14 -33.47)"/><path class="cls-4" d="M218.75,222.22a6.45,6.45,0,0,1-1.54,3.61,35.66,35.66,0,0,1-5.88,5.77,48.81,48.81,0,0,1-7.45,5.33c-2.09,1.12-2.77,1-4.55-.56a15,15,0,0,1-3.13-3.74,1.82,1.82,0,0,1,0-2.12,54.8,54.8,0,0,1,5.74-7.29c2.1-2.28,4.19-4.57,6.16-7,2.49-3,3.46-3.1,6.27-.42a24.28,24.28,0,0,1,4,5.44A4.45,4.45,0,0,1,218.75,222.22Z" transform="translate(-36.14 -33.47)"/><path class="cls-4" d="M286.06,163.64a10.64,10.64,0,0,1-7.53-3,43.7,43.7,0,0,1-3.45-3.49,11.66,11.66,0,0,1-2.18-4.77,27.39,27.39,0,0,1-.63-7.35c0-2.94,1.48-5.31,3-7.64a17.46,17.46,0,0,1,9.23-7.1c.32-.11.63-.25,1-.39,0,.38.18.77-.16,1.08-1.8,1.66-2.44,4-3.53,6.07a20.57,20.57,0,0,0-2.88,10.09,21.87,21.87,0,0,0,2.3,9.41C282.46,159.14,283.63,161.8,286.06,163.64Z" transform="translate(-36.14 -33.47)"/><path class="cls-4" d="M183.8,214a7.26,7.26,0,0,1-2-.21,2.27,2.27,0,0,1-1.7-1.65,47.78,47.78,0,0,1-1.26-9.38c0-.32,0-.5.41-.54,3.58-.38,7.1-1.47,10.75-1a5.4,5.4,0,0,1,4.76,3.67c.78,2.22,1.51,4.45,2.22,6.7.35,1.1.23,1.21-1,1.3C192,213.21,187.87,213.41,183.8,214Z" transform="translate(-36.14 -33.47)"/><path class="cls-4" d="M223.63,256.56c-1.21.19-2-.78-3-.93s-1.47-.85-2.14-1.37c-.25-.2-.11-.53-.05-.79.16-.67.37-1.33.57-2,1-3.55,1.61-7.2,2.52-10.78.23-.91,1-1.49,1.23-2.36.12-.41.55-.17.82-.07,3.21,1.09,6.41,2.21,9.62,3.3.89.31.37.83.16,1.22-1.39,2.48-2.78,5-4.21,7.41a30.77,30.77,0,0,1-3.8,5.59C224.86,256.32,224.35,256.77,223.63,256.56Z" transform="translate(-36.14 -33.47)"/><circle class="cls-1" cx="371.86" cy="376.53" r="25"/></svg>